<svg width="557" height="545" viewBox="0 0 557 545" fill="none" xmlns="http://www.w3.org/2000/svg">
<g clip-path="url(#clip0_2_410)">
<path d="M512.997 298.409C534.269 285.36 548.54 266.182 554.228 242.965C560.662 216.734 555.887 187.4 540.024 155.696C533.067 141.813 518.14 115.826 496.144 97.6826C471.187 77.1138 443.225 71.8854 415.262 82.5647C368.51 100.453 343.019 144.883 331.731 165.151C331.208 165.007 330.674 164.851 330.106 164.662C321.757 162.192 307.754 158.087 287.416 153.037L242.311 141.835C242.256 141.323 242.178 140.789 242.122 140.266C239.373 118.162 232.95 66.4234 205.388 34.3299C188.056 14.1616 163.2 1.69129 137.174 0.167262C107.319 -1.6015 77.3198 10.3905 50.4149 34.8305C5.44344 75.701 -9.22793 117.573 5.54363 162.86C19.1352 204.498 52.4631 216.668 84.7 228.415C89.019 230.006 93.4494 231.596 97.8464 233.31C70.3292 276.583 61.1791 309.021 60.9564 334.229C48.0216 342.339 35.2648 350.771 22.6973 359.47C10.23 368.091 22.163 388.46 34.686 379.783C44.3704 373.064 54.1885 366.567 64.0955 360.226C68.114 375.645 75.2271 387.648 81.2826 397.86L82.4848 399.884C89.3196 411.442 108.176 439.687 140.18 461.246C140.091 461.591 140.035 461.924 139.968 462.28C134.269 488.956 151.044 531.24 197.173 542.698C197.897 542.876 198.631 543.054 199.355 543.221C224.045 548.705 243.135 540.451 254.801 532.563C271.476 521.272 280.938 505.665 282.697 495.953C282.853 495.064 283.097 493.907 283.409 492.505C310.726 488.556 336.173 477.409 363.1 457.608C417.244 417.794 416.264 357.801 415.474 309.578C415.451 308.91 415.451 308.254 415.429 307.586C416.531 307.798 417.711 308.031 418.913 308.265C440.976 312.615 477.933 319.868 512.919 298.42L512.986 298.398L512.997 298.409ZM251.662 348.991C248.723 351.027 243.781 351.027 237.725 348.991C223.878 344.363 220.171 333.473 220.137 328.378C220.126 327.265 220.316 323.516 222.92 321.592C225.169 319.923 229.087 319.723 234.141 320.98C235.154 321.236 236.211 321.536 237.313 321.914C251.473 326.642 254.612 338.467 254.3 344.052C254.222 345.531 253.688 347.589 251.673 349.002L251.662 348.991ZM269.907 493.64C268.805 499.714 261.191 512.362 247.666 521.517C238.126 527.98 222.497 534.733 202.316 530.261C163.3 521.651 148.261 486.153 152.803 464.995C158.536 438.207 170.001 394.712 173.029 383.276C180.209 379.683 203.295 369.448 233.985 368.959L207.937 473.749C207.203 476.72 208.973 479.712 211.878 480.435C214.783 481.158 217.755 479.345 218.49 476.375L245.128 369.226C261.647 370.26 279.88 374.332 298.76 383.632C293.027 404.456 272.445 479.645 269.907 493.651V493.64ZM409.062 291.99L401.159 291.2L401.236 299.277C401.281 302.747 401.326 306.296 401.392 309.922C402.172 357.112 403.051 410.608 354.94 445.994C331.842 462.981 310.08 473.082 287.194 477.365C290.7 463.615 295.665 444.949 300.307 427.773C329.071 416.337 352.692 392.854 359.393 352.139C363.122 329.501 360.451 315.062 352.08 316.386C336.651 318.833 304.058 326.765 277.543 330.792C272.567 331.559 267.836 332.215 263.294 332.816C260.422 324.729 253.899 315.796 240.831 311.424C230.523 307.965 222.375 308.41 216.586 312.692C209.941 317.609 209.262 325.419 209.284 328.556C209.284 331.359 209.796 334.307 210.787 337.266C194.835 337.944 177.281 338.256 154.461 338.79C140.948 339.101 123.226 336.02 127.133 355.61C131.486 377.413 142.606 392.52 154.417 403.021C151.077 415.97 147.059 431.878 143.686 446.184C116.77 426.716 100.729 402.632 94.7184 392.464L93.5162 390.418C87.2714 379.905 80.1695 367.913 76.9636 352.228C133 317.554 192.197 288.508 253.22 263.946C254.757 263.334 256.282 262.733 257.818 262.121C271.843 273.535 285.446 285.438 298.359 298.097C309.234 308.743 325.698 291.556 314.845 280.933C304.67 270.976 294.051 261.454 283.142 252.276C301.787 245.224 320.566 238.516 339.434 232.086C353.727 227.214 347.304 204.409 332.922 209.292C309.123 217.391 285.435 225.968 261.959 235.112C251.595 227.002 241.042 219.104 230.434 211.384C204.475 192.461 177.793 173.873 149.408 158.81C136.028 151.724 124.395 172.56 137.797 179.668C165.214 194.219 191.028 212.073 216.141 230.273C222.954 235.201 229.722 240.218 236.434 245.324C181.055 268.051 127.078 294.215 75.6946 325.218C77.9432 302.258 88.4625 272.923 114.477 233.855L119.341 226.535L111.327 223.209C104.035 220.183 96.7109 217.524 89.6201 214.932C57.873 203.341 30.4783 193.351 19.0239 158.276C6.02228 118.474 18.9905 82.6426 59.8433 45.5431C83.854 23.7173 110.28 13.0047 136.25 14.5509C158.536 15.8636 179.819 26.5429 194.68 43.8634C219.414 72.6975 225.481 121.433 228.052 142.235C228.386 144.872 228.653 147.097 228.909 148.832L229.61 153.56L283.943 167.042C303.991 172.015 317.806 176.086 326.065 178.511C329.56 179.546 331.887 180.225 333.401 180.603L338.588 181.893L341.26 177.188C341.883 176.086 342.584 174.84 343.364 173.45C353.527 155.195 377.304 112.444 420.182 96.0584C476.274 74.622 513.854 135.249 527.401 162.326C553.928 215.311 545.835 261.599 505.773 286.172C475.473 304.75 441.878 298.131 421.819 294.182C416.865 293.203 412.579 292.368 409.084 292.012H409.062V291.99Z" fill="#284D53"/>
</g>
<defs>
<clipPath id="clip0_2_410">
<rect width="557" height="545" fill="white"/>
</clipPath>
</defs>
</svg>
