<svg width="146" height="26" viewBox="0 0 146 26" fill="none" xmlns="http://www.w3.org/2000/svg">
<path d="M8.1669 0.587036V1.8994H5.09497V9.95864H3.55902V1.8994H0.487061V0.587036H8.1669Z" fill="#25323A"/>
<path d="M14.4539 3.73756C14.8747 4.1708 15.0851 4.80174 15.0851 5.62618V9.95865H13.6922V9.06692C13.4313 9.40763 13.103 9.6558 12.7201 9.84088C12.2867 10.0386 11.7733 10.1437 11.1842 10.1437C10.473 10.1437 9.9217 9.95865 9.51772 9.60532C9.09691 9.23938 8.88651 8.77669 8.88651 8.21304C8.88651 7.45171 9.17686 6.86283 9.77863 6.45482C10.3299 6.05943 11.1042 5.84911 12.1015 5.82387L13.587 5.78602V5.52523C13.587 4.63349 13.0989 4.20025 12.131 4.20025C11.7102 4.20025 11.3819 4.26755 11.1337 4.42318C10.8433 4.59564 10.6497 4.85643 10.5698 5.20976L9.0843 5.09198C9.22738 4.34326 9.59769 3.79224 10.1868 3.45153C10.6876 3.13606 11.3693 2.99304 12.2362 2.99304C13.2335 2.99304 13.9825 3.24121 14.4539 3.74176V3.73756ZM12.2109 6.90068C11.0158 6.92592 10.4267 7.34655 10.4267 8.16257C10.4267 8.39812 10.5193 8.59582 10.7297 8.75145C10.9401 8.90708 11.201 8.99962 11.5292 8.99962C12.1057 8.99962 12.5939 8.82716 12.9852 8.49907C13.3808 8.15836 13.5912 7.72512 13.5912 7.19933V6.85862L12.2109 6.89648V6.90068Z" fill="#25323A"/>
<path d="M18.4053 0.679593C18.5905 0.86467 18.6957 1.10022 18.6957 1.38625C18.6957 1.67228 18.5905 1.92465 18.3927 2.10973C18.1949 2.29481 17.9592 2.38735 17.6689 2.38735C17.3785 2.38735 17.1429 2.29481 16.9451 2.10973C16.7473 1.91203 16.6547 1.67648 16.6547 1.38625C16.6547 1.09601 16.7473 0.860464 16.9451 0.679593C17.1429 0.494517 17.3785 0.401978 17.6689 0.401978C17.9592 0.401978 18.2075 0.494517 18.4053 0.679593ZM18.4179 3.17392V9.95866H16.9198V3.17392H18.4179Z" fill="#25323A"/>
<path d="M21.2037 3.17389L22.5545 8.18778L23.8927 3.17389H25.273L26.6112 8.18778L27.962 3.17389H29.6158L27.3308 9.95863H25.9379L24.587 4.99942L23.2236 9.95863H21.8307L19.5457 3.17389H21.1995H21.2037Z" fill="#25323A"/>
<path d="M35.7765 3.73756C36.1973 4.1708 36.4077 4.80174 36.4077 5.62618V9.95865H35.0148V9.06692C34.7539 9.40763 34.4257 9.6558 34.0427 9.84088C33.6093 10.0386 33.0959 10.1437 32.5068 10.1437C31.7956 10.1437 31.2443 9.95865 30.8403 9.60532C30.4195 9.23938 30.2091 8.77669 30.2091 8.21304C30.2091 7.45171 30.4995 6.86283 31.1012 6.45482C31.6525 6.05943 32.4268 5.84911 33.4241 5.82387L34.9096 5.78602V5.52523C34.9096 4.63349 34.4215 4.20025 33.4536 4.20025C33.0328 4.20025 32.7045 4.26755 32.4563 4.42318C32.1659 4.59564 31.9723 4.85643 31.8924 5.20976L30.4069 5.09198C30.55 4.34326 30.9203 3.79224 31.5094 3.45153C32.0102 3.13606 32.6919 2.99304 33.5588 2.99304C34.5561 2.99304 35.3052 3.24121 35.7765 3.74176V3.73756ZM33.5293 6.90068C32.3342 6.92592 31.7451 7.34655 31.7451 8.16257C31.7451 8.39812 31.8377 8.59582 32.0481 8.75145C32.2585 8.90708 32.5194 8.99962 32.8476 8.99962C33.4241 8.99962 33.9123 8.82716 34.3036 8.49907C34.6992 8.15836 34.9096 7.72512 34.9096 7.19933V6.85862L33.5293 6.89648V6.90068Z" fill="#25323A"/>
<path d="M44.0328 5.77339V9.95865H42.5347V5.90379C42.5347 4.78912 42.0213 4.2381 40.9987 4.2381C40.6326 4.2381 40.3044 4.36849 40.0267 4.63349C39.711 4.92372 39.5259 5.34015 39.4754 5.87855V9.95865H37.9773V3.17391H39.4754V3.96048C39.7363 3.64501 40.0393 3.39684 40.3675 3.237C40.7084 3.06454 41.0787 2.98883 41.4827 2.98883C43.1785 2.98883 44.0286 3.9058 44.0286 5.76919L44.0328 5.77339Z" fill="#25323A"/>
<path d="M51.6495 0.587036V4.49888H56.4005V0.587036H57.9365V9.95864H56.4005V5.81124H51.6495V9.95864H50.1136V0.587036H51.6495Z" fill="#25323A"/>
<path d="M60.5497 3.17389L62.3508 8.00271L64.0719 3.17389H65.7005L62.0226 12.5581H60.4193L61.6144 9.803L58.9212 3.17389H60.5497Z" fill="#25323A"/>
<path d="M72.3535 4.05303C72.8795 4.70921 73.1404 5.55046 73.1404 6.59783C73.1404 7.6452 72.8795 8.42336 72.3661 9.07954C71.8148 9.78619 71.0405 10.1437 70.0685 10.1437C69.2815 10.1437 68.5956 9.76096 68.0486 9.02906V12.5581H66.5505V3.17391H67.9434V3.89739C68.4147 3.29589 69.1006 2.99304 69.9927 2.99304C70.99 2.99304 71.777 3.34637 72.3577 4.05723L72.3535 4.05303ZM68.4147 4.89008C68.1243 5.29809 67.9939 5.83649 67.9939 6.51791V6.62307C67.9939 7.32972 68.1664 7.91019 68.5199 8.34344C68.8355 8.73883 69.231 8.93232 69.715 8.93232C70.3714 8.93232 70.8722 8.70939 71.1878 8.28876C71.4613 7.89337 71.6086 7.32972 71.6086 6.59783C71.6086 5.86594 71.4782 5.29809 71.2257 4.9069C70.9101 4.4358 70.4261 4.19604 69.7697 4.19604C69.1805 4.19604 68.7345 4.41897 68.4189 4.89008H68.4147Z" fill="#25323A"/>
<path d="M79.8987 4.11612C80.4373 4.79753 80.7109 5.75657 80.7109 6.97639H75.6274C75.6779 7.60733 75.8505 8.09106 76.1408 8.41915C76.4312 8.74724 76.8478 8.9197 77.3864 8.9197C77.8451 8.9197 78.2154 8.81454 78.5016 8.60423C78.7246 8.43177 78.9224 8.15836 79.1076 7.77559H80.6056C80.4499 8.40653 80.1343 8.94493 79.6588 9.36556C79.0571 9.87873 78.308 10.1395 77.3991 10.1395C76.3891 10.1395 75.5853 9.82405 74.9962 9.20572C74.365 8.56216 74.0494 7.68305 74.0494 6.55576C74.0494 5.54625 74.3398 4.705 74.9415 4.02358C75.518 3.32954 76.3218 2.98883 77.3317 2.98883C78.4469 2.98883 79.3011 3.35478 79.8903 4.11612H79.8987ZM76.2124 4.62928C75.9346 4.9069 75.7537 5.3107 75.6611 5.84911H79.1538C79.0234 4.74706 78.4301 4.20865 77.3822 4.20865C76.8815 4.20865 76.5027 4.33905 76.2124 4.62928Z" fill="#25323A"/>
<path d="M85.9542 3.1613V4.65874C85.6133 4.55358 85.2977 4.51572 84.9821 4.51572C84.5865 4.51572 84.233 4.65874 83.9174 4.97421C83.5513 5.32754 83.3788 5.78602 83.3788 6.36649V9.96287H81.8933V3.17812H83.3788V4.14978C83.564 3.80907 83.7743 3.54828 84.0226 3.3632C84.3256 3.11503 84.6791 2.99725 85.0999 2.99725C85.4281 2.99725 85.7185 3.04773 85.9542 3.16971V3.1613Z" fill="#25323A"/>
<path d="M91.349 0.587036L94.9343 9.95864H93.2932L92.4389 7.60733H88.5127L87.6585 9.95864H86.0173L89.6026 0.587036H91.349ZM91.9802 6.34965L90.5074 2.24011H90.4569L88.9714 6.34965H91.9802Z" fill="#25323A"/>
<path d="M96.6512 3.17389L98.002 8.18778L99.3402 3.17389H100.72L102.059 8.18778L103.409 3.17389H105.063L102.778 9.95863H101.385L100.035 4.99942L98.6711 9.95863H97.2782L94.9932 3.17389H96.647H96.6512Z" fill="#25323A"/>
<path d="M111.371 4.11612C111.91 4.79753 112.183 5.75657 112.183 6.97639H107.1C107.151 7.60733 107.323 8.09106 107.613 8.41915C107.904 8.74724 108.32 8.9197 108.859 8.9197C109.318 8.9197 109.688 8.81454 109.974 8.60423C110.197 8.43177 110.395 8.15836 110.58 7.77559H112.078C111.923 8.40653 111.607 8.94493 111.131 9.36556C110.53 9.87873 109.781 10.1395 108.872 10.1395C107.862 10.1395 107.058 9.82405 106.469 9.20572C105.838 8.56216 105.522 7.68305 105.522 6.55576C105.522 5.54625 105.812 4.705 106.414 4.02358C106.991 3.32954 107.794 2.98883 108.804 2.98883C109.919 2.98883 110.774 3.35478 111.363 4.11612H111.371ZM107.681 4.62928C107.403 4.9069 107.222 5.3107 107.129 5.84911H110.622C110.492 4.74706 109.898 4.20865 108.851 4.20865C108.35 4.20865 107.971 4.33905 107.681 4.62928Z" fill="#25323A"/>
<path d="M118.853 5.14245H117.397C117.292 4.80174 117.136 4.55357 116.926 4.41897C116.703 4.27595 116.362 4.20865 115.903 4.20865C115.508 4.20865 115.209 4.25913 115.011 4.38111C114.776 4.49889 114.67 4.68396 114.67 4.94475C114.67 5.15507 114.843 5.35276 115.209 5.5084C115.432 5.60094 115.878 5.73133 116.56 5.90379C117.322 6.08886 117.898 6.29918 118.268 6.54735C118.807 6.88806 119.081 7.37599 119.081 7.97749C119.081 9.42024 118.058 10.1437 116.021 10.1437C114.132 10.1437 113.118 9.34453 112.975 7.75455H114.431C114.511 8.1878 114.666 8.49065 114.889 8.67153C115.112 8.82716 115.466 8.9197 115.967 8.9197C117.019 8.9197 117.54 8.62946 117.54 8.07844C117.54 7.76297 117.343 7.5148 116.951 7.32972C116.741 7.22456 116.295 7.10679 115.613 6.95115C114.814 6.76608 114.25 6.56838 113.921 6.36227C113.395 6.03418 113.134 5.5757 113.134 4.98261C113.134 4.35167 113.383 3.86795 113.909 3.52724C114.422 3.16129 115.091 2.98883 115.933 2.98883C117.717 2.98883 118.702 3.69549 118.862 5.14245H118.853Z" fill="#25323A"/>
<path d="M125.889 3.99834C126.508 4.66714 126.819 5.52102 126.819 6.57259C126.819 7.62416 126.504 8.46121 125.902 9.11739C125.271 9.79881 124.429 10.1395 123.407 10.1395C122.384 10.1395 121.542 9.79881 120.911 9.11739C120.293 8.46121 119.994 7.60733 119.994 6.57259C119.994 5.53784 120.297 4.67135 120.924 3.99834C121.542 3.31692 122.367 2.98883 123.407 2.98883C124.446 2.98883 125.258 3.31692 125.889 3.99834ZM121.963 4.94475C121.673 5.36538 121.53 5.91641 121.53 6.57259C121.53 7.22877 121.673 7.76717 121.963 8.1878C122.304 8.67153 122.775 8.9239 123.407 8.9239C124.038 8.9239 124.509 8.67573 124.85 8.1878C125.14 7.75455 125.296 7.21615 125.296 6.57259C125.296 5.92903 125.14 5.36538 124.85 4.94475C124.509 4.44421 124.021 4.20865 123.407 4.20865C122.792 4.20865 122.304 4.44421 121.963 4.94475Z" fill="#25323A"/>
<path d="M133.607 4.09088C133.923 3.67025 134.251 3.38422 134.592 3.22438C134.895 3.06875 135.273 2.98883 135.732 2.98883C136.426 2.98883 137.007 3.21176 137.479 3.68287C137.925 4.15397 138.16 4.75968 138.16 5.5084V9.95865H136.662V5.77339C136.662 5.23499 136.544 4.8438 136.321 4.60404C136.086 4.35587 135.715 4.2381 135.194 4.2381C134.827 4.2381 134.524 4.36849 134.276 4.65873C134.015 4.93214 133.897 5.31491 133.897 5.81546V9.96286H132.399V5.79022C132.399 4.75547 131.953 4.2423 131.061 4.2423C130.628 4.2423 130.287 4.39794 130.026 4.73865C129.765 5.05412 129.63 5.44951 129.63 5.89537V9.96286H128.132V3.17811H129.63V3.87215C130.194 3.27907 130.813 2.99304 131.469 2.99304C132.467 2.99304 133.178 3.35898 133.611 4.09508L133.607 4.09088Z" fill="#25323A"/>
<path d="M145.188 4.11612C145.726 4.79753 146 5.75657 146 6.97639H140.917C140.967 7.60733 141.14 8.09106 141.43 8.41915C141.72 8.74724 142.137 8.9197 142.676 8.9197C143.134 8.9197 143.505 8.81454 143.791 8.60423C144.014 8.43177 144.212 8.15836 144.397 7.77559H145.895C145.739 8.40653 145.423 8.94493 144.948 9.36556C144.346 9.87873 143.597 10.1395 142.688 10.1395C141.678 10.1395 140.874 9.82405 140.285 9.20572C139.654 8.56216 139.338 7.68305 139.338 6.55576C139.338 5.54625 139.629 4.705 140.231 4.02358C140.807 3.32954 141.611 2.98883 142.621 2.98883C143.736 2.98883 144.59 3.35478 145.179 4.11612H145.188ZM141.497 4.62928C141.22 4.9069 141.039 5.3107 140.946 5.84911H144.439C144.308 4.74706 143.715 4.20865 142.667 4.20865C142.166 4.20865 141.788 4.33905 141.497 4.62928Z" fill="#25323A"/>
<path d="M8.12907 16.9495C8.79816 17.4753 9.21897 18.2493 9.39151 19.3008H7.84292C7.71247 18.6993 7.42211 18.2493 7.00129 17.9506C6.56786 17.6478 5.99133 17.5048 5.28016 17.5048C4.40066 17.5048 3.70633 17.795 3.19294 18.3965C2.62905 19.0274 2.35132 19.9065 2.35132 21.0591C2.35132 22.2116 2.59958 23.015 3.10035 23.6039C3.63899 24.2348 4.48061 24.5503 5.62101 24.5503C6.06708 24.5503 6.48789 24.4998 6.88345 24.3947C7.24956 24.2895 7.57781 24.1465 7.89341 23.9614V22.0307H5.41061V20.7184H9.42937V24.6807C8.9286 25.0761 8.36471 25.3621 7.72087 25.5724C7.03915 25.7827 6.29012 25.8879 5.44849 25.8879C3.9504 25.8879 2.79736 25.4168 1.96836 24.4704C1.19407 23.5913 0.811127 22.4513 0.811127 21.0591C0.811127 19.6668 1.18986 18.5016 1.96836 17.5931C2.78053 16.6214 3.88305 16.1503 5.27595 16.1503C6.48368 16.1503 7.43052 16.4111 8.12486 16.9495H8.12907Z" fill="#25323A"/>
<path d="M12.4971 18.9222V23.057C12.4971 23.608 12.6023 24.0034 12.8379 24.2642C13.0736 24.5124 13.4397 24.647 13.9657 24.647C14.294 24.647 14.6096 24.504 14.9125 24.2264C15.2155 23.9361 15.4386 23.5576 15.569 23.0696V18.9222H17.0671V25.707H15.569V24.8279C14.9925 25.5345 14.2813 25.8921 13.4439 25.8921C11.8154 25.8921 11.0032 24.9751 11.0032 23.1496V18.9222H12.5013H12.4971Z" fill="#25323A"/>
<path d="M20.3873 16.4279C20.5725 16.613 20.6777 16.8486 20.6777 17.1346C20.6777 17.4206 20.5725 17.673 20.3747 17.8581C20.1769 18.0432 19.9413 18.1357 19.6509 18.1357C19.3606 18.1357 19.1249 18.0432 18.9271 17.8581C18.7293 17.6604 18.6367 17.4248 18.6367 17.1346C18.6367 16.8444 18.7293 16.6088 18.9271 16.4279C19.1249 16.2429 19.3606 16.1503 19.6509 16.1503C19.9413 16.1503 20.1896 16.2429 20.3873 16.4279ZM20.4042 18.9223V25.707H18.9061V18.9223H20.4042Z" fill="#25323A"/>
<path d="M28.5805 16.1503V25.7028H27.1876V24.9793C26.7163 25.585 26.0304 25.8837 25.1383 25.8837C24.1283 25.8837 23.3414 25.5303 22.7733 24.8195C22.2473 24.1633 21.9864 23.3094 21.9864 22.2747C21.9864 21.2399 22.2347 20.4491 22.7607 19.793C23.312 19.0863 24.0862 18.7288 25.0583 18.7288C25.8452 18.7288 26.5143 19.0947 27.0824 19.8434V16.1419H28.5805V16.1503ZM23.9348 20.6132C23.657 20.996 23.5266 21.5428 23.5266 22.2789C23.5266 23.015 23.6444 23.5786 23.9053 23.9698C24.2083 24.4409 24.6922 24.6765 25.3613 24.6765C25.9378 24.6765 26.3965 24.4409 26.7121 23.9824C26.9856 23.5618 27.1329 23.0108 27.1329 22.3546V22.2494C27.1329 21.526 26.9478 20.9497 26.6069 20.5291C26.2913 20.1337 25.8831 19.9402 25.4118 19.9402C24.7301 19.9402 24.2419 20.1631 23.9263 20.609L23.9348 20.6132Z" fill="#25323A"/>
<path d="M35.6039 19.8645C36.1426 20.5459 36.4161 21.5049 36.4161 22.7247H31.3327C31.3832 23.3557 31.5557 23.8394 31.8461 24.1675C32.1364 24.4956 32.553 24.668 33.0917 24.668C33.5504 24.668 33.9207 24.5629 34.2068 24.3526C34.4299 24.1801 34.6276 23.9067 34.8128 23.5239H36.3109C36.1552 24.1549 35.8396 24.6933 35.3641 25.1139C34.7623 25.6271 34.0132 25.8879 33.1043 25.8879C32.0943 25.8879 31.2906 25.5724 30.7015 24.9541C30.0702 24.3105 29.7546 23.4314 29.7546 22.3041C29.7546 21.2946 30.045 20.4533 30.6468 19.7719C31.2233 19.0779 32.027 18.7372 33.037 18.7372C34.1521 18.7372 35.0064 19.1031 35.5955 19.8645H35.6039ZM31.9176 20.3776C31.6399 20.6553 31.4589 21.0591 31.3663 21.5975H34.8591C34.7286 20.4954 34.1353 19.957 33.0875 19.957C32.5867 19.957 32.208 20.0874 31.9176 20.3776Z" fill="#25323A"/>
<path d="M39.0967 16.1503V19.8519C39.6479 19.1031 40.3297 18.7372 41.1166 18.7372C42.0887 18.7372 42.8503 19.0905 43.4142 19.8014C43.9276 20.4576 44.1885 21.2862 44.1885 22.2831C44.1885 23.28 43.9276 24.1717 43.4016 24.8279C42.8251 25.5346 42.0382 25.8921 41.0366 25.8921C40.1445 25.8921 39.4628 25.5892 38.9873 24.9877V25.7112H37.5944V16.1587H39.0925L39.0967 16.1503ZM39.568 20.5333C39.2145 20.9539 39.042 21.5302 39.042 22.2537V22.3588C39.042 23.015 39.1724 23.566 39.4628 23.9866C39.7784 24.4451 40.2245 24.6807 40.8136 24.6807C41.4701 24.6807 41.954 24.4451 42.2696 23.974C42.5179 23.5786 42.6525 23.015 42.6525 22.2831C42.6525 21.5512 42.5095 20.996 42.2444 20.6174C41.9288 20.1715 41.4322 19.9486 40.7589 19.9486C40.275 19.9486 39.8794 20.1463 39.5638 20.5375L39.568 20.5333Z" fill="#25323A"/>
<path d="M51.1361 19.7467C51.7547 20.4155 52.0703 21.2694 52.0703 22.3209C52.0703 23.3725 51.7547 24.2096 51.153 24.8657C50.5217 25.5472 49.6801 25.8879 48.6575 25.8879C47.635 25.8879 46.7933 25.5472 46.1621 24.8657C45.5435 24.2096 45.2448 23.3557 45.2448 22.3209C45.2448 21.2862 45.5477 20.4197 46.1747 19.7467C46.7933 19.0653 47.6181 18.7372 48.6575 18.7372C49.6969 18.7372 50.5091 19.0653 51.1403 19.7467H51.1361ZM47.2099 20.6931C46.9196 21.1137 46.7765 21.6648 46.7765 22.3209C46.7765 22.9771 46.9196 23.5155 47.2099 23.9362C47.5508 24.4199 48.0221 24.6723 48.6533 24.6723C49.2845 24.6723 49.7559 24.4241 50.0967 23.9362C50.3871 23.5029 50.5428 22.9645 50.5428 22.3209C50.5428 21.6774 50.3871 21.1137 50.0967 20.6931C49.7559 20.1926 49.2677 19.957 48.6533 19.957C48.0389 19.957 47.5508 20.1926 47.2099 20.6931Z" fill="#25323A"/>
<path d="M59.0137 19.7467C59.6323 20.4155 59.9437 21.2694 59.9437 22.3209C59.9437 23.3725 59.6281 24.2096 59.0264 24.8657C58.3951 25.5472 57.5535 25.8879 56.5309 25.8879C55.5084 25.8879 54.6667 25.5472 54.0355 24.8657C53.4169 24.2096 53.1181 23.3557 53.1181 22.3209C53.1181 21.2862 53.4211 20.4197 54.0481 19.7467C54.6667 19.0653 55.4915 18.7372 56.5309 18.7372C57.5704 18.7372 58.3825 19.0653 59.0137 19.7467ZM55.0875 20.6931C54.7972 21.1137 54.6541 21.6648 54.6541 22.3209C54.6541 22.9771 54.7972 23.5155 55.0875 23.9362C55.4284 24.4199 55.8997 24.6723 56.5309 24.6723C57.1622 24.6723 57.6335 24.4241 57.9743 23.9362C58.2647 23.5029 58.4204 22.9645 58.4204 22.3209C58.4204 21.6774 58.2647 21.1137 57.9743 20.6931C57.6335 20.1926 57.1453 19.957 56.5309 19.957C55.9166 19.957 55.4284 20.1926 55.0875 20.6931Z" fill="#25323A"/>
<path d="M62.7548 16.1503V21.6101L65.5363 18.9181H67.4679L64.4633 21.7279L67.733 25.7028H65.8183L63.4407 22.6827L62.759 23.3263V25.7028H61.2609V16.1503H62.759H62.7548Z" fill="#25323A"/>
</svg>
