<svg width="425" height="45" viewBox="0 0 425 45" fill="none" xmlns="http://www.w3.org/2000/svg">
<path d="M31.1486 0H13.1841C5.90271 0 0 5.90012 0 13.1783V31.1349C0 38.4131 5.90271 44.3132 13.1841 44.3132H31.1486C38.4299 44.3132 44.3326 38.4131 44.3326 31.1349V13.1783C44.3326 5.90012 38.4299 0 31.1486 0Z" fill="#00D951"/>
<path d="M18.0024 33.583L7.59148 23.1767C7.0823 22.6677 7.0823 21.8433 7.59148 21.3385L9.43043 19.5004C9.93962 18.9914 10.7644 18.9914 11.2694 19.5004L18.9198 27.1474L33.0801 12.9932C33.5893 12.4843 34.4141 12.4843 34.9191 12.9932L36.758 14.8314C37.2672 15.3403 37.2672 16.1648 36.758 16.6695L19.8371 33.583C19.328 34.092 18.5032 34.092 17.9982 33.583H18.0024Z" fill="white"/>
<path d="M53.4854 16.4466C56.0355 16.047 59.8228 12.2235 64.7758 4.98022L68.7104 6.36409C65.9077 10.2213 63.0294 13.5737 60.0416 16.3372C65.9414 16.047 71.6981 15.6474 77.3034 15.1342C76.2092 13.5316 75.0815 12.0047 73.9537 10.583L77.4128 8.94255C80.3248 12.581 83.0559 16.5896 85.6817 20.9936L81.966 22.8149C81.1664 21.3216 80.329 19.9041 79.4874 18.5203C71.9127 19.2143 63.4628 19.7233 54.1755 20.0513L53.4854 16.4466ZM81.5999 38.9081H77.741V37.5243H60.332V38.9081H56.4731V23.2902H81.6041V38.9081H81.5999ZM77.741 33.8858V26.9328H60.332V33.8858H77.741Z" fill="white"/>
<path d="M97.4435 19.3952L94.9649 21.8348C93.6519 20.1607 91.7962 18.3772 89.3933 16.4465L91.834 14.0784C94.018 15.824 95.9117 17.6117 97.4435 19.3952ZM97.9863 25.5111C96.4588 30.1002 94.7797 34.3948 92.8861 38.4328L89.4606 36.9396C91.5016 32.788 93.2858 28.5312 94.8134 24.1987L97.9821 25.5111H97.9863ZM97.5865 10.6587L95.108 13.1362C93.9044 11.4957 92.1581 9.75014 89.8983 7.85731L92.339 5.52703C94.3799 7.23899 96.1263 8.95094 97.5823 10.6587H97.5865ZM100.065 17.9398C99.9557 19.4667 99.7369 20.9262 99.4087 22.3438L97.2246 21.5782C97.6244 20.2659 97.9148 18.8862 98.0999 17.4266L100.065 17.9356V17.9398ZM106.217 16.5938L104.033 17.1406C103.962 16.7788 103.852 16.4508 103.777 16.1563C102.03 16.4465 100.099 16.741 97.9484 17.0312L97.4771 14.9197C98.1336 14.7009 99.152 13.6452 100.499 11.7523C99.7327 11.8238 98.971 11.9332 98.1673 12.0089L97.6581 10.0446C98.6764 8.95094 99.5896 7.35256 100.351 5.241L102.754 5.96869C102.026 7.57128 101.227 8.84579 100.351 9.86371L101.845 9.71649C102.211 9.06031 102.611 8.44198 103.011 7.7858L105.414 8.66071C104.395 10.1876 103.52 11.4621 102.792 12.4842L104.686 11.9038C105.233 13.2498 105.742 14.8145 106.213 16.598L106.217 16.5938ZM103.453 31.1559H121.371C121.371 34.4326 121.081 36.5442 120.571 37.4906C120.062 38.3655 118.825 38.8366 116.931 38.8745C115.109 38.8745 113.363 38.8366 111.688 38.7651L110.888 35.7786C112.854 35.8501 114.676 35.9259 116.351 35.9259C117.079 35.9259 117.516 35.745 117.664 35.4548C117.811 35.1267 117.882 34.6556 117.882 34.0709H99.6738L100.692 26.937H116.717V25.4059H100.326V22.7139H120.104V29.6669H103.714L103.461 31.1601L103.453 31.1559ZM103.087 21.7633L100.865 22.0535C100.827 20.2322 100.755 18.8483 100.684 17.8683L102.54 17.6495C102.792 18.6675 102.977 20.0177 103.087 21.7633ZM101.231 14.4444L103.162 14.1163C102.981 13.5694 102.796 13.0983 102.653 12.6609C102.106 13.3886 101.635 13.9733 101.235 14.4444H101.231ZM106.146 20.8505L104.181 21.5782C103.924 20.3037 103.634 19.0671 103.305 17.8304L105.128 17.3215C105.565 18.596 105.893 19.7611 106.146 20.8547V20.8505ZM108.296 7.20113C108.077 6.58281 107.859 6.03599 107.64 5.52703L110.771 5.01807C110.989 5.67425 111.208 6.40193 111.389 7.20113H114.301V9.60292H105.523V7.20113H108.292H108.296ZM113.502 16.19V21.7254H106.365V16.19H113.502ZM113.211 10.5115V12.5137H106.655V10.5115H113.211ZM113.173 13.3171V15.3193H106.655V13.3171H113.173ZM111.065 18.0113H108.805V19.7569H111.065V18.0113ZM122.865 16.4087L120.714 16.9555C120.643 16.6274 120.567 16.3372 120.496 16.1185C118.749 16.4087 116.746 16.7031 114.524 16.9555L114.015 14.844C114.705 14.6252 115.728 13.6073 117.112 11.8238L114.852 12.0426L114.343 10.0782C115.362 8.95094 116.275 7.34835 117.037 5.3083L119.439 5.99813C118.749 7.56287 117.945 8.83737 117.037 9.8553C117.584 9.78379 118.131 9.74593 118.64 9.67443C119.04 9.08975 119.439 8.47143 119.877 7.81945L122.246 8.69436C121.337 10.0025 120.533 11.0962 119.843 12.0089L121.228 11.5715C121.846 12.9553 122.393 14.5916 122.869 16.4129L122.865 16.4087ZM116.746 17.8683C116.637 19.3615 116.456 20.8169 116.199 22.2386L114.015 21.4731C114.377 20.1986 114.634 18.8147 114.781 17.3593L116.746 17.8683ZM119.877 21.6539L117.655 21.9442C117.584 20.1228 117.474 18.739 117.327 17.7589L119.183 17.5402C119.549 18.5581 119.768 19.9083 119.877 21.6539ZM117.727 14.4822C118.493 14.335 119.221 14.2256 119.877 14.0826C119.696 13.5737 119.511 13.0983 119.33 12.6609C118.711 13.3886 118.164 14.0069 117.727 14.4822ZM123.008 20.6318L121.043 21.3595C120.752 20.085 120.386 18.8483 119.949 17.6117L121.771 17.1027C122.318 18.3772 122.717 19.5424 123.008 20.636V20.6318Z" fill="white"/>
<path d="M133.17 9.71229V5.12323H136.777V9.71229H141.911V13.0605H136.777V17.4308H141.62V20.8547H137.576V24.9685H141.873V28.3924H137.576V33.7092C137.648 33.747 137.757 33.7807 137.867 33.8185C139.979 34.5084 144.894 34.8743 152.616 34.8743C155.894 34.8743 158.369 34.8028 159.972 34.6556L159.315 38.4412H153.454C143.985 38.4412 138.085 37.8944 135.678 36.8386C133.932 36.0394 132.362 34.7649 131.016 32.9436C130.54 35.0552 129.96 37.0195 129.269 38.9123L126.5 36.4348C127.923 32.2832 128.722 27.6984 128.903 22.6719L132.144 23.0715C132.072 24.9264 131.963 26.7099 131.744 28.4597C132.438 29.587 133.2 30.5334 134.004 31.3368V20.8505H127.666V17.4266H133.166V13.0563H127.957V9.70808H133.166L133.17 9.71229ZM142.786 10.0404V6.54496H158.773C158.735 13.0984 158.373 17.0312 157.716 18.3394C157.026 19.6517 155.861 20.3037 154.182 20.3037C153.416 20.3037 152.469 20.2322 151.341 20.1228L150.394 16.7746C151.598 16.884 152.578 16.9555 153.382 17.027C154.148 16.9892 154.619 16.5896 154.804 15.8619C154.985 15.1342 155.095 13.2035 155.133 10.0362H150.798C150.323 12.438 149.704 14.3308 148.976 15.7904C147.958 17.6117 146.426 19.2479 144.423 20.7033L141.982 17.536C143.657 16.4423 144.894 15.2436 145.77 13.9312C146.388 12.9133 146.897 11.6388 147.263 10.0362H142.782L142.786 10.0404ZM158.226 21.6161V33.482H143.729V21.6161H158.226ZM154.804 24.8928H147.12V30.2095H154.804V24.8928Z" fill="white"/>
<path d="M171.7 9.38421H175.635V12.8081H163.907V9.38421H168.094C167.656 8.21906 167.185 7.09178 166.671 5.99815L170.278 4.98022C170.896 6.58282 171.372 8.07605 171.7 9.38421ZM175.269 36.8344H168.46V38.3992H164.891V25.4017H175.273V36.8344H175.269ZM175.016 14.8818V18.1207H165.148V14.8818H175.016ZM175.05 19.942V23.2187H165.144V19.942H175.05ZM171.738 33.482V28.75H168.46V33.482H171.738ZM186.925 19.7233L185.612 18.1207C184.446 18.7011 183.319 19.2143 182.153 19.6475L181.135 17.4266C181.463 17.17 181.644 16.8798 181.644 16.5181V14.1499H180.626C180.478 15.6053 180.226 16.7368 179.86 17.4981C179.35 18.5161 178.513 19.4288 177.272 20.228L175.525 18.0071C176.434 17.4981 177.091 16.8798 177.528 16.1858C177.785 15.6768 177.966 15.0206 178.075 14.1457H176.363V11.5252H177.928L176.182 10.3222C176.91 9.22857 177.419 7.7732 177.638 5.95188L179.86 6.27997C179.788 6.60806 179.75 6.93615 179.712 7.22638H180.512V5.33355H183.571V7.22638H185.574V9.77539H183.571V11.521H185.793V14.1415H184.261V16.2531C184.808 15.9628 185.355 15.7063 185.936 15.416L186.374 17.3467C186.849 16.9808 187.211 16.5812 187.43 16.1437C187.649 15.6726 187.83 15.0164 187.977 14.1415H186.412V11.521H187.577L185.831 10.2844C186.559 9.22857 186.997 7.7732 187.215 5.91402L189.437 6.24211C189.366 6.60385 189.328 6.93194 189.29 7.22638H190.346V5.33355H193.368V7.22638H195.661V9.77539H193.368V11.521H196.318V14.1415H193.877V16.619C193.877 16.8756 194.024 17.0186 194.386 17.0186H194.567C194.714 17.0186 194.824 16.9471 194.933 16.8377C195.08 16.6905 195.152 16.0722 195.224 14.9071L197.336 15.6011C197.117 17.3467 196.898 18.3688 196.608 18.6591C196.318 18.9493 195.808 19.1344 195.005 19.1344H193.582C192.892 19.1344 192.379 18.9157 192.017 18.5497C191.689 18.1838 191.546 17.7127 191.546 17.128V14.1415H190.527C190.38 15.5969 190.161 16.7284 189.799 17.4897C189.362 18.3268 188.743 19.0545 187.906 19.7106H195.08V33.7638H191.293C193.334 34.3107 195.299 35.0383 197.193 35.9133L195.956 38.8997C193.515 37.5537 190.965 36.4979 188.343 35.7702L189.399 33.7681H183.899L185.355 35.6987C183.571 37.0447 181.021 38.1384 177.709 38.9754L176.106 36.2077C178.875 35.5515 181.097 34.7145 182.734 33.7681H178.29V19.7148H186.921L186.925 19.7233ZM178.294 11.5336H180.516V9.78801H179.132C178.875 10.5157 178.585 11.1004 178.294 11.5336ZM191.697 23.7655V22.5289H181.72V23.7655H191.697ZM191.697 27.2946V26.0916H181.72V27.2946H191.697ZM191.697 29.6627H181.72V30.9372H191.697V29.6627ZM187.943 11.5336H190.346V9.78801H188.743C188.491 10.5157 188.234 11.1004 187.943 11.5336Z" fill="white"/>
<path d="M202.184 38.5086L201.346 34.9038C202.512 35.051 203.64 35.1225 204.662 35.1225C205.5 35.1225 205.937 34.6851 205.937 33.8101V26.4576C204.519 26.9329 203.097 27.3661 201.675 27.7699L200.728 23.9464C202.474 23.5805 204.225 23.1472 205.937 22.634V15.353H201.456V11.7482H205.937V5.30414H209.615V11.7482H213.255V15.353H209.615V21.3595C210.962 20.8506 212.275 20.2659 213.55 19.6476V23.5047C212.237 24.0852 210.928 24.632 209.615 25.1452V34.7902C209.615 37.2677 208.378 38.5044 205.975 38.5044H202.188L202.184 38.5086ZM233.029 10.8775L218.499 11.5673V13.6789C218.499 14.5159 218.898 14.9534 219.774 14.9534H233.543V18.4109H217.956C215.915 18.4109 214.897 17.3552 214.897 15.2436V5.45136H218.503V8.2191L233.034 7.56291V10.8775H233.029ZM232.705 38.8703H228.88V37.3392H218.936V38.8703H215.187V21.1408H232.705V38.8703ZM228.88 27.5133V24.4554H218.936V27.5133H228.88ZM228.88 33.9952V30.8657H218.936V33.9952H228.88Z" fill="white"/>
<path d="M253.245 8.03822C253.392 6.94458 253.498 5.85516 253.645 4.79938L257.504 5.34619L257.176 8.03822H271.125V11.6051H256.557C256.338 12.5516 256.157 13.498 255.938 14.4065H269.413V34.4285C269.413 37.1962 268.138 38.5801 265.588 38.5801H262.2L261.215 34.9038L264.346 35.0131C265.221 35.0131 265.659 34.5042 265.659 33.5578V17.9777H243.954V38.8367H240.204V14.4107H252.042C252.26 13.4643 252.441 12.5179 252.622 11.6094H238.42V8.04243H253.245V8.03822ZM253.245 22.6004H256.342C257.07 21.2544 257.689 19.8326 258.236 18.3058L261.661 19.5424C261.152 20.6697 260.605 21.6918 260.024 22.6004H263.34V25.9149H256.641V28.6827H264.287V31.9972H256.641V38.2604H252.925V31.9972H245.313V28.6827H252.925V25.9149H246.335V22.6004H249.614C249.104 21.5446 248.557 20.5603 247.939 19.6518L251.326 18.4151C252.021 19.6181 252.673 21.002 253.258 22.6004H253.245Z" fill="white"/>
<path d="M287.167 11.3864V12.6988H284.095V20.758H282.559V12.6988H279.487V11.3864H287.167Z" fill="white"/>
<path d="M293.454 14.5369C293.875 14.9702 294.085 15.6011 294.085 16.4256V20.758H292.692V19.8663C292.431 20.207 292.103 20.4552 291.72 20.6403C291.287 20.838 290.773 20.9431 290.184 20.9431C289.473 20.9431 288.922 20.758 288.518 20.4047C288.097 20.0388 287.886 19.5761 287.886 19.0124C287.886 18.2511 288.177 17.6622 288.779 17.2542C289.33 16.8588 290.104 16.6485 291.101 16.6233L292.587 16.5854V16.3246C292.587 15.4329 292.099 14.9996 291.131 14.9996C290.71 14.9996 290.382 15.0669 290.134 15.2226C289.843 15.395 289.65 15.6558 289.57 16.0091L288.084 15.8914C288.227 15.1426 288.598 14.5916 289.187 14.2509C289.688 13.9354 290.369 13.7924 291.236 13.7924C292.233 13.7924 292.983 14.0406 293.454 14.5411V14.5369ZM291.211 17.7001C290.016 17.7253 289.427 18.1459 289.427 18.9619C289.427 19.1975 289.519 19.3952 289.73 19.5508C289.94 19.7065 290.201 19.799 290.529 19.799C291.106 19.799 291.594 19.6265 291.985 19.2984C292.381 18.9577 292.591 18.5245 292.591 17.9987V17.658L291.211 17.6959V17.7001Z" fill="white"/>
<path d="M297.405 11.479C297.59 11.664 297.696 11.8996 297.696 12.1856C297.696 12.4717 297.59 12.724 297.393 12.9091C297.195 13.0942 296.959 13.1867 296.669 13.1867C296.378 13.1867 296.143 13.0942 295.945 12.9091C295.747 12.7114 295.655 12.4759 295.655 12.1856C295.655 11.8954 295.747 11.6598 295.945 11.479C296.143 11.2939 296.378 11.2014 296.669 11.2014C296.959 11.2014 297.207 11.2939 297.405 11.479ZM297.418 13.9733V20.758H295.92V13.9733H297.418Z" fill="white"/>
<path d="M300.204 13.9733L301.554 18.9872L302.893 13.9733H304.273L305.611 18.9872L306.962 13.9733H308.616L306.331 20.758H304.938L303.587 15.7988L302.224 20.758H300.831L298.546 13.9733H300.199H300.204Z" fill="white"/>
<path d="M314.776 14.5369C315.197 14.9702 315.408 15.6011 315.408 16.4256V20.758H314.015V19.8663C313.754 20.207 313.426 20.4552 313.043 20.6403C312.609 20.838 312.096 20.9431 311.507 20.9431C310.796 20.9431 310.244 20.758 309.84 20.4047C309.42 20.0388 309.209 19.5761 309.209 19.0124C309.209 18.2511 309.499 17.6622 310.101 17.2542C310.652 16.8588 311.427 16.6485 312.424 16.6233L313.91 16.5854V16.3246C313.91 15.4329 313.421 14.9996 312.454 14.9996C312.033 14.9996 311.705 15.0669 311.456 15.2226C311.166 15.395 310.972 15.6558 310.892 16.0091L309.407 15.8914C309.55 15.1426 309.92 14.5916 310.509 14.2509C311.01 13.9354 311.692 13.7924 312.559 13.7924C313.556 13.7924 314.305 14.0406 314.776 14.5411V14.5369ZM312.529 17.7001C311.334 17.7253 310.745 18.1459 310.745 18.9619C310.745 19.1975 310.838 19.3952 311.048 19.5508C311.258 19.7065 311.519 19.799 311.848 19.799C312.424 19.799 312.912 19.6265 313.304 19.2984C313.699 18.9577 313.91 18.5245 313.91 17.9987V17.658L312.529 17.6959V17.7001Z" fill="white"/>
<path d="M323.033 16.5728V20.758H321.535V16.7032C321.535 15.5885 321.021 15.0375 319.999 15.0375C319.633 15.0375 319.304 15.1679 319.027 15.4329C318.711 15.7231 318.526 16.1395 318.475 16.6779V20.758H316.977V13.9733H318.475V14.7599C318.736 14.4444 319.039 14.1962 319.368 14.0364C319.708 13.8639 320.079 13.7882 320.483 13.7882C322.179 13.7882 323.029 14.7052 323.029 16.5686L323.033 16.5728Z" fill="white"/>
<path d="M330.649 11.3864V15.2983H335.4V11.3864H336.936V20.758H335.4V16.6106H330.649V20.758H329.114V11.3864H330.649Z" fill="white"/>
<path d="M339.55 13.9733L341.351 18.8021L343.072 13.9733H344.7L341.023 23.3575H339.419L340.614 20.6024L337.921 13.9733H339.55Z" fill="white"/>
<path d="M351.353 14.8524C351.879 15.5086 352.14 16.3498 352.14 17.3972C352.14 18.4446 351.879 19.2227 351.366 19.8789C350.815 20.5856 350.04 20.9431 349.068 20.9431C348.281 20.9431 347.596 20.5603 347.049 19.8284V23.3575H345.55V13.9733H346.943V14.6968C347.415 14.0953 348.101 13.7924 348.993 13.7924C349.99 13.7924 350.777 14.1457 351.358 14.8566L351.353 14.8524ZM347.415 15.6895C347.124 16.0975 346.994 16.6359 346.994 17.3173V17.4224C346.994 18.1291 347.166 18.7096 347.52 19.1428C347.835 19.5382 348.231 19.7317 348.715 19.7317C349.371 19.7317 349.872 19.5088 350.188 19.0881C350.461 18.6927 350.609 18.1291 350.609 17.3972C350.609 16.6653 350.478 16.0975 350.226 15.7063C349.91 15.2352 349.426 14.9954 348.77 14.9954C348.18 14.9954 347.734 15.2183 347.419 15.6895H347.415Z" fill="white"/>
<path d="M358.899 14.9155C359.437 15.5969 359.711 16.5559 359.711 17.7758H354.627C354.678 18.4067 354.85 18.8904 355.141 19.2185C355.431 19.5466 355.848 19.7191 356.386 19.7191C356.845 19.7191 357.215 19.6139 357.502 19.4036C357.725 19.2311 357.922 18.9577 358.107 18.575H359.606C359.45 19.2059 359.134 19.7443 358.659 20.1649C358.057 20.6781 357.308 20.9389 356.399 20.9389C355.389 20.9389 354.585 20.6234 353.996 20.0051C353.365 19.3615 353.049 18.4824 353.049 17.3551C353.049 16.3456 353.34 15.5044 353.941 14.823C354.518 14.1289 355.322 13.7882 356.332 13.7882C357.447 13.7882 358.301 14.1542 358.89 14.9155H358.899ZM355.212 15.4287C354.935 15.7063 354.754 16.1101 354.661 16.6485H358.154C358.023 15.5464 357.43 15.008 356.382 15.008C355.881 15.008 355.503 15.1384 355.212 15.4287Z" fill="white"/>
<path d="M364.954 13.9607V15.4581C364.613 15.353 364.298 15.3151 363.982 15.3151C363.587 15.3151 363.233 15.4581 362.917 15.7736C362.551 16.1269 362.379 16.5854 362.379 17.1659V20.7622H360.893V13.9775H362.379V14.9492C362.564 14.6084 362.774 14.3477 363.023 14.1626C363.326 13.9144 363.679 13.7966 364.1 13.7966C364.428 13.7966 364.719 13.8471 364.954 13.9691V13.9607Z" fill="white"/>
<path d="M370.349 11.3864L373.934 20.758H372.293L371.439 18.4067H367.513L366.658 20.758H365.017L368.603 11.3864H370.349ZM370.98 17.149L369.507 13.0395H369.457L367.971 17.149H370.98Z" fill="white"/>
<path d="M375.651 13.9733L377.002 18.9872L378.34 13.9733H379.72L381.059 18.9872L382.409 13.9733H384.063L381.778 20.758H380.385L379.034 15.7988L377.671 20.758H376.278L373.993 13.9733H375.647H375.651Z" fill="white"/>
<path d="M390.371 14.9155C390.91 15.5969 391.183 16.5559 391.183 17.7758H386.1C386.151 18.4067 386.323 18.8904 386.613 19.2185C386.904 19.5466 387.32 19.7191 387.859 19.7191C388.318 19.7191 388.688 19.6139 388.974 19.4036C389.197 19.2311 389.395 18.9577 389.58 18.575H391.078C390.923 19.2059 390.607 19.7443 390.131 20.1649C389.53 20.6781 388.781 20.9389 387.872 20.9389C386.862 20.9389 386.058 20.6234 385.469 20.0051C384.838 19.3615 384.522 18.4824 384.522 17.3551C384.522 16.3456 384.812 15.5044 385.414 14.823C385.991 14.1289 386.794 13.7882 387.804 13.7882C388.919 13.7882 389.774 14.1542 390.363 14.9155H390.371ZM386.681 15.4287C386.403 15.7063 386.222 16.1101 386.129 16.6485H389.622C389.492 15.5464 388.898 15.008 387.851 15.008C387.35 15.008 386.971 15.1384 386.681 15.4287Z" fill="white"/>
<path d="M397.853 15.9418H396.397C396.292 15.6011 396.136 15.3529 395.926 15.2183C395.703 15.0753 395.362 15.008 394.903 15.008C394.508 15.008 394.209 15.0585 394.011 15.1805C393.776 15.2983 393.67 15.4833 393.67 15.7441C393.67 15.9544 393.843 16.1521 394.209 16.3078C394.432 16.4003 394.878 16.5307 395.56 16.7032C396.321 16.8882 396.898 17.0986 397.268 17.3467C397.807 17.6874 398.08 18.1754 398.08 18.7769C398.08 20.2196 397.058 20.9431 395.021 20.9431C393.132 20.9431 392.118 20.1439 391.974 18.5539H393.431C393.51 18.9872 393.666 19.29 393.889 19.4709C394.112 19.6265 394.466 19.7191 394.966 19.7191C396.019 19.7191 396.54 19.4288 396.54 18.8778C396.54 18.5623 396.343 18.3142 395.951 18.1291C395.741 18.0239 395.295 17.9062 394.613 17.7505C393.813 17.5655 393.25 17.3678 392.921 17.1617C392.395 16.8336 392.134 16.3751 392.134 15.782C392.134 15.151 392.383 14.6673 392.909 14.3266C393.422 13.9607 394.091 13.7882 394.933 13.7882C396.717 13.7882 397.702 14.4949 397.862 15.9418H397.853Z" fill="white"/>
<path d="M404.889 14.7977C405.508 15.4665 405.819 16.3204 405.819 17.372C405.819 18.4235 405.504 19.2606 404.902 19.9168C404.271 20.5982 403.429 20.9389 402.406 20.9389C401.384 20.9389 400.542 20.5982 399.911 19.9168C399.292 19.2606 398.994 18.4067 398.994 17.372C398.994 16.3372 399.297 15.4707 399.924 14.7977C400.542 14.1163 401.367 13.7882 402.406 13.7882C403.446 13.7882 404.258 14.1163 404.889 14.7977ZM400.963 15.7441C400.673 16.1648 400.53 16.7158 400.53 17.372C400.53 18.0281 400.673 18.5666 400.963 18.9872C401.304 19.4709 401.775 19.7233 402.406 19.7233C403.038 19.7233 403.509 19.4751 403.85 18.9872C404.14 18.5539 404.296 18.0155 404.296 17.372C404.296 16.7284 404.14 16.1648 403.85 15.7441C403.509 15.2436 403.021 15.008 402.406 15.008C401.792 15.008 401.304 15.2436 400.963 15.7441Z" fill="white"/>
<path d="M412.607 14.8903C412.923 14.4696 413.251 14.1836 413.592 14.0238C413.895 13.8681 414.273 13.7882 414.732 13.7882C415.426 13.7882 416.007 14.0111 416.478 14.4822C416.925 14.9534 417.16 15.5591 417.16 16.3078V20.758H415.662V16.5728C415.662 16.0344 415.544 15.6432 415.321 15.4034C415.086 15.1553 414.715 15.0375 414.193 15.0375C413.827 15.0375 413.524 15.1679 413.276 15.4581C413.015 15.7315 412.897 16.1143 412.897 16.6148V20.7622H411.399V16.5896C411.399 15.5548 410.953 15.0417 410.061 15.0417C409.628 15.0417 409.287 15.1973 409.026 15.538C408.765 15.8535 408.63 16.2489 408.63 16.6948V20.7622H407.132V13.9775H408.63V14.6715C409.194 14.0784 409.813 13.7924 410.469 13.7924C411.467 13.7924 412.178 14.1584 412.611 14.8945L412.607 14.8903Z" fill="white"/>
<path d="M424.188 14.9155C424.726 15.5969 425 16.5559 425 17.7758H419.917C419.967 18.4067 420.14 18.8904 420.43 19.2185C420.72 19.5466 421.137 19.7191 421.676 19.7191C422.134 19.7191 422.505 19.6139 422.791 19.4036C423.014 19.2311 423.212 18.9577 423.397 18.575H424.895C424.739 19.2059 424.423 19.7443 423.948 20.1649C423.346 20.6781 422.597 20.9389 421.688 20.9389C420.678 20.9389 419.874 20.6234 419.285 20.0051C418.654 19.3615 418.339 18.4824 418.339 17.3551C418.339 16.3456 418.629 15.5044 419.231 14.823C419.807 14.1289 420.611 13.7882 421.621 13.7882C422.736 13.7882 423.59 14.1542 424.179 14.9155H424.188ZM420.497 15.4287C420.22 15.7063 420.039 16.1101 419.946 16.6485H423.439C423.308 15.5464 422.715 15.008 421.667 15.008C421.166 15.008 420.788 15.1384 420.497 15.4287Z" fill="white"/>
<path d="M287.129 27.7489C287.798 28.2747 288.219 29.0486 288.391 30.1002H286.843C286.712 29.4987 286.422 29.0486 286.001 28.75C285.568 28.4471 284.991 28.3041 284.28 28.3041C283.401 28.3041 282.706 28.5944 282.193 29.1959C281.629 29.8268 281.351 30.7059 281.351 31.8584C281.351 33.011 281.599 33.8144 282.1 34.4032C282.639 35.0342 283.481 35.3497 284.621 35.3497C285.067 35.3497 285.488 35.2992 285.883 35.194C286.249 35.0889 286.578 34.9459 286.893 34.7608V32.8301H284.411V31.5177H288.429V35.4801C287.929 35.8754 287.365 36.1615 286.721 36.3718C286.039 36.5821 285.29 36.6873 284.448 36.6873C282.95 36.6873 281.797 36.2162 280.968 35.2697C280.194 34.3906 279.811 33.2507 279.811 31.8584C279.811 30.4662 280.19 29.301 280.968 28.3925C281.78 27.4208 282.883 26.9497 284.276 26.9497C285.484 26.9497 286.43 27.2105 287.125 27.7489H287.129Z" fill="white"/>
<path d="M291.497 29.7216V33.8564C291.497 34.4074 291.602 34.8028 291.838 35.0636C292.074 35.3118 292.44 35.4464 292.966 35.4464C293.294 35.4464 293.61 35.3034 293.913 35.0257C294.216 34.7355 294.439 34.3569 294.569 33.869V29.7216H296.067V36.5064H294.569V35.6272C293.992 36.3339 293.281 36.6914 292.444 36.6914C290.815 36.6914 290.003 35.7745 290.003 33.9489V29.7216H291.501H291.497Z" fill="white"/>
<path d="M299.387 27.2273C299.572 27.4124 299.678 27.648 299.678 27.934C299.678 28.22 299.572 28.4724 299.375 28.6575C299.177 28.8425 298.941 28.9351 298.651 28.9351C298.361 28.9351 298.125 28.8425 297.927 28.6575C297.729 28.4598 297.637 28.2242 297.637 27.934C297.637 27.6437 297.729 27.4082 297.927 27.2273C298.125 27.0422 298.361 26.9497 298.651 26.9497C298.941 26.9497 299.19 27.0422 299.387 27.2273ZM299.404 29.7217V36.5064H297.906V29.7217H299.404Z" fill="white"/>
<path d="M307.58 26.9497V36.5022H306.188V35.7787C305.716 36.3844 305.03 36.683 304.138 36.683C303.128 36.683 302.341 36.3297 301.773 35.6189C301.247 34.9627 300.986 34.1088 300.986 33.074C300.986 32.0393 301.235 31.2485 301.761 30.5923C302.312 29.8857 303.086 29.5281 304.058 29.5281C304.845 29.5281 305.514 29.8941 306.082 30.6428V26.9413H307.58V26.9497ZM302.935 31.4126C302.657 31.7953 302.526 32.3422 302.526 33.0783C302.526 33.8144 302.644 34.378 302.905 34.7692C303.208 35.2403 303.692 35.4758 304.361 35.4758C304.938 35.4758 305.396 35.2403 305.712 34.7818C305.986 34.3612 306.133 33.8101 306.133 33.154V33.0488C306.133 32.3253 305.948 31.7491 305.607 31.3284C305.291 30.9331 304.883 30.7396 304.412 30.7396C303.73 30.7396 303.242 30.9625 302.926 31.4084L302.935 31.4126Z" fill="white"/>
<path d="M314.604 30.6638C315.143 31.3453 315.416 32.3043 315.416 33.5241H310.333C310.383 34.1551 310.556 34.6388 310.846 34.9669C311.136 35.295 311.553 35.4674 312.092 35.4674C312.55 35.4674 312.921 35.3623 313.207 35.152C313.43 34.9795 313.628 34.7061 313.813 34.3233H315.311C315.155 34.9543 314.84 35.4927 314.364 35.9133C313.762 36.4265 313.013 36.6872 312.104 36.6872C311.094 36.6872 310.291 36.3718 309.701 35.7535C309.07 35.1099 308.755 34.2308 308.755 33.1035C308.755 32.094 309.045 31.2527 309.647 30.5713C310.223 29.8773 311.027 29.5366 312.037 29.5366C313.152 29.5366 314.006 29.9025 314.596 30.6638H314.604ZM310.918 31.177C310.64 31.4546 310.459 31.8584 310.366 32.3968H313.859C313.729 31.2948 313.135 30.7564 312.087 30.7564C311.587 30.7564 311.208 30.8868 310.918 31.177Z" fill="white"/>
<path d="M318.097 26.9497V30.6512C318.648 29.9025 319.33 29.5366 320.117 29.5366C321.089 29.5366 321.85 29.8899 322.414 30.6008C322.928 31.2569 323.188 32.0856 323.188 33.0825C323.188 34.0794 322.928 34.9711 322.402 35.6273C321.825 36.3339 321.038 36.6915 320.037 36.6915C319.144 36.6915 318.463 36.3886 317.987 35.7871V36.5106H316.594V26.9581H318.092L318.097 26.9497ZM318.568 31.3327C318.214 31.7533 318.042 32.3295 318.042 33.053V33.1582C318.042 33.8144 318.172 34.3654 318.463 34.786C318.778 35.2445 319.224 35.4801 319.814 35.4801C320.47 35.4801 320.954 35.2445 321.27 34.7734C321.518 34.378 321.653 33.8144 321.653 33.0825C321.653 32.3506 321.509 31.7954 321.244 31.4168C320.929 30.9709 320.432 30.748 319.759 30.748C319.275 30.748 318.879 30.9457 318.564 31.3369L318.568 31.3327Z" fill="white"/>
<path d="M330.136 30.5461C330.755 31.2149 331.07 32.0687 331.07 33.1203C331.07 34.1719 330.755 35.0089 330.153 35.6651C329.522 36.3465 328.68 36.6872 327.658 36.6872C326.635 36.6872 325.793 36.3465 325.162 35.6651C324.544 35.0089 324.245 34.1551 324.245 33.1203C324.245 32.0856 324.548 31.2191 325.175 30.5461C325.793 29.8647 326.618 29.5366 327.658 29.5366C328.697 29.5366 329.509 29.8647 330.14 30.5461H330.136ZM326.21 31.4925C325.92 31.9131 325.776 32.4641 325.776 33.1203C325.776 33.7765 325.92 34.3149 326.21 34.7355C326.551 35.2193 327.022 35.4716 327.653 35.4716C328.285 35.4716 328.756 35.2235 329.097 34.7355C329.387 34.3023 329.543 33.7639 329.543 33.1203C329.543 32.4768 329.387 31.9131 329.097 31.4925C328.756 30.9919 328.268 30.7564 327.653 30.7564C327.039 30.7564 326.551 30.9919 326.21 31.4925Z" fill="white"/>
<path d="M338.014 30.5461C338.632 31.2149 338.944 32.0687 338.944 33.1203C338.944 34.1719 338.628 35.0089 338.026 35.6651C337.395 36.3465 336.554 36.6872 335.531 36.6872C334.508 36.6872 333.667 36.3465 333.036 35.6651C332.417 35.0089 332.118 34.1551 332.118 33.1203C332.118 32.0856 332.421 31.2191 333.048 30.5461C333.667 29.8647 334.492 29.5366 335.531 29.5366C336.57 29.5366 337.383 29.8647 338.014 30.5461ZM334.088 31.4925C333.797 31.9131 333.654 32.4641 333.654 33.1203C333.654 33.7765 333.797 34.3149 334.088 34.7355C334.428 35.2193 334.9 35.4716 335.531 35.4716C336.162 35.4716 336.634 35.2235 336.974 34.7355C337.265 34.3023 337.42 33.7639 337.42 33.1203C337.42 32.4768 337.265 31.9131 336.974 31.4925C336.634 30.9919 336.145 30.7564 335.531 30.7564C334.917 30.7564 334.428 30.9919 334.088 31.4925Z" fill="white"/>
<path d="M341.755 26.9497V32.4095L344.536 29.7174H346.468L343.463 32.5272L346.733 36.5022H344.818L342.441 33.4821L341.759 34.1256V36.5022H340.261V26.9497H341.759H341.755Z" fill="white"/>
</svg>
