<svg width="218" height="35" viewBox="0 0 218 35" fill="none" xmlns="http://www.w3.org/2000/svg">
<path d="M0 11.6472C2.55013 11.2476 6.33744 7.42407 11.2904 0.180847L15.225 1.56472C12.4224 5.42188 9.54403 8.77429 6.55626 11.5378C12.4561 11.2476 18.2128 10.848 23.818 10.3348C22.7239 8.73223 21.5961 7.20535 20.4683 5.78362L23.9274 4.14317C26.8394 7.78161 29.5705 11.7902 32.1964 16.1942L28.4806 18.0155C27.6811 16.5223 26.8437 15.1048 26.002 13.7209C18.4274 14.4149 9.97748 14.9239 0.690136 15.252L0 11.6472ZM28.1145 34.1088H24.2557V32.7249H6.84662V34.1088H2.98777V18.4908H28.1187V34.1088H28.1145ZM24.2557 29.0865V22.1335H6.84662V29.0865H24.2557Z" fill="#25323A"/>
<path d="M43.9581 14.5958L41.4795 17.0354C40.1665 15.3613 38.3107 13.5779 35.9079 11.6472L38.3486 9.27903C40.5326 11.0246 42.4263 12.8123 43.9581 14.5958ZM44.5009 20.7117C42.9734 25.3008 41.2943 29.5954 39.4006 33.6334L35.9752 32.1402C38.0162 27.9886 39.8004 23.7318 41.328 19.3994L44.4967 20.7117H44.5009ZM44.1011 5.85932L41.6225 8.33682C40.419 6.69637 38.6726 4.95076 36.4129 3.05793L38.8536 0.72765C40.8945 2.43961 42.6409 4.15157 44.0969 5.85932H44.1011ZM46.5797 13.1404C46.4703 14.6673 46.2515 16.1269 45.9232 17.5444L43.7392 16.7788C44.139 15.4665 44.4294 14.0868 44.6145 12.6272L46.5797 13.1362V13.1404ZM52.732 11.7944L50.548 12.3412C50.4764 11.9795 50.367 11.6514 50.2913 11.3569C48.5449 11.6472 46.6134 11.9416 44.463 12.2318L43.9917 10.1203C44.6482 9.90156 45.6666 8.84578 47.0132 6.95295C46.2473 7.02446 45.4856 7.13382 44.6818 7.20954L44.1727 5.2452C45.191 4.15157 46.1042 2.55318 46.8659 0.441622L49.2687 1.16931C48.5407 2.7719 47.7412 4.04641 46.8659 5.06433L48.3598 4.91711C48.7259 4.26093 49.1256 3.64261 49.5254 2.98643L51.9282 3.86133C50.9099 5.38822 50.0346 6.66272 49.3066 7.68485L51.2002 7.10438C51.7473 8.45039 52.2565 10.0151 52.7278 11.7986L52.732 11.7944ZM49.9673 26.3566H67.8855C67.8855 29.6333 67.5951 31.7448 67.0859 32.6912C66.5767 33.5661 65.3396 34.0372 63.4459 34.0751C61.6238 34.0751 59.8774 34.0372 58.2026 33.9657L57.403 30.9793C59.3682 31.0508 61.1903 31.1265 62.8652 31.1265C63.5932 31.1265 64.0308 30.9456 64.1781 30.6554C64.3254 30.3273 64.3969 29.8562 64.3969 29.2715H46.1884L47.2067 22.1376H63.2313V20.6066H46.8406V17.9145H66.6188V24.8675H50.2282L49.9757 26.3608L49.9673 26.3566ZM49.6012 16.9639L47.3793 17.2542C47.3414 15.4328 47.2698 14.049 47.1983 13.0689L49.0541 12.8502C49.3066 13.8681 49.4917 15.2183 49.6012 16.9639ZM47.7454 9.64498L49.6769 9.31689C49.4959 8.77007 49.3108 8.29897 49.1677 7.86151C48.6207 8.5892 48.1494 9.17387 47.7496 9.64498H47.7454ZM52.6605 16.0512L50.6953 16.7788C50.4386 15.5043 50.1482 14.2677 49.82 13.031L51.6421 12.5221C52.0797 13.7966 52.408 14.9617 52.6605 16.0554V16.0512ZM54.8108 2.40175C54.592 1.78343 54.3732 1.23661 54.1543 0.72765L57.2852 0.218689C57.504 0.87487 57.7228 1.60256 57.9038 2.40175H60.8158V4.80354H52.0377V2.40175H54.8066H54.8108ZM60.0163 11.3906V16.9261H52.8793V11.3906H60.0163ZM59.7259 5.7121V7.71429H53.1696V5.7121H59.7259ZM59.688 8.51769V10.5199H53.1696V8.51769H59.688ZM57.5798 13.2119H55.32V14.9575H57.5798V13.2119ZM69.3794 11.6093L67.229 12.1561C67.1575 11.828 67.0817 11.5378 67.0102 11.3191C65.2638 11.6093 63.2607 11.9038 61.0388 12.1561L60.5297 10.0446C61.2198 9.82585 62.2424 8.80793 63.6268 7.02446L61.3671 7.24319L60.8579 5.27885C61.8763 4.15157 62.7894 2.54897 63.5511 0.508923L65.9539 1.19875C65.2638 2.76349 64.4601 4.038 63.5511 5.05592C64.0982 4.98441 64.6452 4.94656 65.1544 4.87505C65.5542 4.29037 65.9539 3.67205 66.3916 3.02008L68.7608 3.89498C67.8518 5.20314 67.0481 6.29677 66.3579 7.20954L67.7424 6.77208C68.361 8.15595 68.9081 9.7922 69.3836 11.6135L69.3794 11.6093ZM63.2607 13.0689C63.1513 14.5621 62.9704 16.0175 62.7137 17.4392L60.5297 16.6737C60.8916 15.3992 61.1483 14.0153 61.2955 12.5599L63.2607 13.0689ZM66.3916 16.8546L64.1697 17.1448C64.0982 15.3235 63.9887 13.9396 63.8415 12.9595L65.6972 12.7408C66.0634 13.7587 66.2822 15.1089 66.3916 16.8546ZM64.2412 9.68283C65.0071 9.53561 65.7351 9.42625 66.3916 9.28324C66.2106 8.77428 66.0255 8.29897 65.8445 7.86151C65.2259 8.5892 64.6789 9.20752 64.2412 9.68283ZM69.5224 15.8324L67.5572 16.5601C67.2669 15.2856 66.9008 14.049 66.4631 12.8123L68.2852 12.3034C68.8323 13.5779 69.2321 14.743 69.5224 15.8366V15.8324Z" fill="#25323A"/>
<path d="M79.6851 4.91291V0.323853H83.2915V4.91291H88.4254V8.26112H83.2915V12.6314H88.135V16.0554H84.091V20.1691H88.3875V23.593H84.091V28.9098C84.1625 28.9476 84.2719 28.9813 84.3814 29.0191C86.4938 29.709 91.4089 30.0749 99.1309 30.0749C102.409 30.0749 104.883 30.0034 106.487 29.8562L105.83 33.6418H99.9683C90.5 33.6418 84.6002 33.095 82.1931 32.0393C80.4468 31.2401 78.8771 29.9656 77.5305 28.1442C77.055 30.2558 76.4743 32.2201 75.7842 34.113L73.0152 31.6355C74.4375 27.4838 75.2371 22.899 75.418 17.8725L78.6583 18.2721C78.5868 20.1271 78.4774 21.9105 78.2585 23.6603C78.9529 24.7876 79.7145 25.734 80.5183 26.5374V16.0512H74.1809V12.6272H79.6809V8.25691H74.4712V4.90871H79.6809L79.6851 4.91291ZM89.3007 5.241V1.74558H105.287C105.249 8.29897 104.888 12.2319 104.231 13.54C103.541 14.8524 102.375 15.5043 100.696 15.5043C99.9304 15.5043 98.9836 15.4328 97.8558 15.3235L96.909 11.9753C98.1125 12.0846 99.093 12.1561 99.8967 12.2276C100.663 12.1898 101.134 11.7902 101.319 11.0625C101.5 10.3348 101.609 8.40413 101.647 5.2368H97.3129C96.8374 7.63859 96.2188 9.53141 95.4908 10.991C94.4724 12.8123 92.9407 14.4486 90.9376 15.9039L88.4969 12.7366C90.1717 11.643 91.4089 10.4442 92.2842 9.13182C92.9028 8.1139 93.412 6.83939 93.7781 5.2368H89.2964L89.3007 5.241ZM104.74 16.8167V28.6826H90.2433V16.8167H104.74ZM101.319 20.0934H93.635V25.4101H101.319V20.0934Z" fill="#25323A"/>
<path d="M118.215 4.58483H122.149V8.00875H110.421V4.58483H114.608C114.171 3.41969 113.699 2.2924 113.186 1.19877L116.792 0.180847C117.411 1.78344 117.886 3.27667 118.215 4.58483ZM121.783 32.0351H114.974V33.5998H111.406V20.6024H121.787V32.0351H121.783ZM121.531 10.0824V13.3213H111.663V10.0824H121.531ZM121.564 15.1426V18.4193H111.658V15.1426H121.564ZM118.253 28.6826V23.9506H114.974V28.6826H118.253ZM133.44 14.9239L132.127 13.3213C130.961 13.9018 129.833 14.4149 128.668 14.8482L127.649 12.6272C127.978 12.3707 128.159 12.0804 128.159 11.7187V9.35055H127.14C126.993 10.8059 126.74 11.9374 126.374 12.6988C125.865 13.7167 125.028 14.6294 123.786 15.4286L122.04 13.2077C122.949 12.6988 123.605 12.0804 124.043 11.3864C124.3 10.8774 124.481 10.2213 124.59 9.34635H122.877V6.72583H124.443L122.696 5.52283C123.424 4.4292 123.934 2.97382 124.152 1.1525L126.374 1.48059C126.303 1.80868 126.265 2.13677 126.227 2.427H127.027V0.534175H130.086V2.427H132.089V4.97601H130.086V6.72162H132.308V9.34214H130.776V11.4537C131.323 11.1635 131.87 10.9069 132.451 10.6166L132.888 12.5473C133.364 12.1814 133.726 11.7818 133.945 11.3443C134.164 10.8732 134.344 10.217 134.492 9.34214H132.926V6.72162H134.092L132.346 5.48497C133.074 4.4292 133.511 2.97382 133.73 1.11464L135.952 1.44273C135.88 1.80447 135.843 2.13256 135.805 2.427H136.861V0.534175H139.882V2.427H142.176V4.97601H139.882V6.72162H142.832V9.34214H140.392V11.8196C140.392 12.0762 140.539 12.2192 140.901 12.2192H141.082C141.229 12.2192 141.338 12.1477 141.448 12.0384C141.595 11.8911 141.667 11.2728 141.738 10.1077L143.851 10.8017C143.632 12.5473 143.413 13.5695 143.123 13.8597C142.832 14.1499 142.323 14.335 141.519 14.335H140.097C139.407 14.335 138.893 14.1163 138.532 13.7503C138.203 13.3844 138.06 12.9133 138.06 12.3286V9.34214H137.042C136.895 10.7975 136.676 11.929 136.314 12.6903C135.876 13.5274 135.258 14.2551 134.42 14.9113H141.595V28.9645H137.808C139.849 29.5113 141.814 30.239 143.708 31.1139L142.47 34.1003C140.03 32.7543 137.48 31.6986 134.858 30.9709L135.914 28.9687H130.414L131.87 30.8994C130.086 32.2454 127.536 33.339 124.224 34.1761L122.621 31.4083C125.39 30.7521 127.611 29.9151 129.248 28.9687H124.805V14.9155H133.436L133.44 14.9239ZM124.809 6.73424H127.031V4.98863H125.646C125.39 5.71632 125.099 6.30099 124.809 6.73424ZM138.212 18.9661V17.7295H128.234V18.9661H138.212ZM138.212 22.4952V21.2922H128.234V22.4952H138.212ZM138.212 24.8633H128.234V26.1378H138.212V24.8633ZM134.458 6.73424H136.861V4.98863H135.258C135.005 5.71632 134.748 6.30099 134.458 6.73424Z" fill="#25323A"/>
<path d="M148.698 33.7092L147.861 30.1044C149.027 30.2516 150.154 30.3231 151.177 30.3231C152.014 30.3231 152.452 29.8857 152.452 29.0108V21.6582C151.034 22.1335 149.612 22.5667 148.189 22.9705L147.242 19.147C148.989 18.7811 150.739 18.3478 152.452 17.8347V10.5536H147.97V6.94879H152.452V0.504761H156.13V6.94879H159.77V10.5536H156.13V16.5602C157.477 16.0512 158.789 15.4665 160.065 14.8482V18.7054C158.752 19.2858 157.443 19.8326 156.13 20.3458V29.9908C156.13 32.4683 154.893 33.705 152.49 33.705H148.703L148.698 33.7092ZM179.544 6.07809L165.013 6.76792V8.87948C165.013 9.71653 165.413 10.154 166.288 10.154H180.057V13.6116H164.47C162.43 13.6116 161.411 12.5558 161.411 10.4442V0.651981H165.018V3.41972L179.548 2.76354V6.07809H179.544ZM179.22 34.0709H175.395V32.5398H165.451V34.0709H161.701V16.3414H179.22V34.0709ZM175.395 22.714V19.656H165.451V22.714H175.395ZM175.395 29.1958V26.0664H165.451V29.1958H175.395Z" fill="#25323A"/>
<path d="M199.76 3.23884C199.907 2.14521 200.012 1.05578 200.16 0L204.018 0.546817L203.69 3.23884H217.64V6.80577H203.072C202.853 7.75219 202.672 8.6986 202.453 9.60716H215.927V29.6291C215.927 32.3968 214.652 33.7807 212.102 33.7807H208.715L207.73 30.1044L210.861 30.2138C211.736 30.2138 212.174 29.7048 212.174 28.7584V13.1783H190.468V34.0373H186.719V9.61137H198.556C198.775 8.66495 198.956 7.71854 199.137 6.80998H184.935V3.24305H199.76V3.23884ZM199.76 17.801H202.857C203.585 16.455 204.204 15.0333 204.751 13.5064L208.176 14.743C207.667 15.8703 207.12 16.8924 206.539 17.801H209.855V21.1156H203.156V23.8833H210.802V27.1979H203.156V33.461H199.44V27.1979H191.828V23.8833H199.44V21.1156H192.85V17.801H196.128C195.619 16.7452 195.072 15.761 194.453 14.8524L197.841 13.6158C198.535 14.8187 199.188 16.2026 199.772 17.801H199.76Z" fill="#25323A"/>
</svg>
