<svg width="45" height="45" viewBox="0 0 45 45" fill="none" xmlns="http://www.w3.org/2000/svg">
<path d="M31.1486 0H13.1841C5.90271 0 0 5.90012 0 13.1783V31.1349C0 38.4131 5.90271 44.3132 13.1841 44.3132H31.1486C38.4299 44.3132 44.3326 38.4131 44.3326 31.1349V13.1783C44.3326 5.90012 38.4299 0 31.1486 0Z" fill="#00D951"/>
<path d="M18.0024 33.583L7.59148 23.1767C7.0823 22.6677 7.0823 21.8433 7.59148 21.3385L9.43043 19.5004C9.93962 18.9914 10.7644 18.9914 11.2694 19.5004L18.9198 27.1474L33.0801 12.9932C33.5893 12.4843 34.4141 12.4843 34.9191 12.9932L36.758 14.8314C37.2672 15.3403 37.2672 16.1648 36.758 16.6695L19.8371 33.583C19.328 34.092 18.5032 34.092 17.9982 33.583H18.0024Z" fill="white"/>
</svg>
