<svg width="568" height="71" viewBox="0 0 568 71" fill="none" xmlns="http://www.w3.org/2000/svg">
<g clip-path="url(#clip0_2_405)">
<path d="M1.45005 30.57C59.8701 29.19 118.29 27.82 176.72 26.8C234.86 25.78 293.04 24.82 351.19 25.49C380.22 25.82 409.25 26.63 438.24 28.23C465.59 29.74 494.17 30.99 520.08 40.74C520.61 40.94 521.61 41.15 522 41.51L522.61 41.87L522.22 44.35C521.63 45.28 519.1 45.97 518.08 46.45C514.79 47.99 511.47 49.45 508.11 50.82C501.94 53.34 495.66 55.58 489.29 57.53C476.52 61.45 463.38 64.25 450.11 65.81C444.05 66.52 437.83 67.26 431.72 67.07C426.95 66.92 420.86 66.02 418.07 61.61C414.62 56.16 418.08 49.24 420.93 44.32C423.56 39.77 426.83 35.63 430.58 31.94C445.4 17.39 466.33 10.54 486.32 6.84C491.49 5.88 497.14 4.5 502.42 4.8C505.43 4.97 508.5 6.28 508.77 9.69C509.01 12.78 507.3 15.8 505.7 18.32C499.52 28.05 490.61 36.02 480.41 41.35C475.41 43.96 470.13 45.89 464.64 47.18L466.1 49.69C492.47 22.56 528.63 5.7 566.38 3.02C568.29 2.88 568.31 -0.119999 566.38 0.0200014C527.84 2.76 490.92 19.86 463.98 47.57C462.92 48.66 463.99 50.42 465.44 50.08C477.06 47.35 487.84 41.64 496.67 33.6C501.11 29.56 505.06 24.91 508.28 19.84C510.89 15.73 513.55 9.79 510.23 5.3C507.19 1.2 501.51 1.58 497.02 2.16C491.56 2.86 486.12 3.76 480.74 4.9C469.83 7.22 459.07 10.56 449.05 15.51C439.03 20.46 430.58 26.6 423.82 34.9C417.94 42.11 409.04 55.32 416.31 64.27C423.58 73.22 438.61 70.06 448.07 69.04C462.14 67.52 476.06 64.7 489.59 60.58C496.46 58.49 503.22 56.07 509.85 53.33C512.81 52.11 515.75 50.82 518.66 49.48C521.03 48.38 524.53 47.31 525.85 44.81C528.66 39.53 520.15 37.56 516.91 36.5C509.96 34.21 502.84 32.45 495.66 31.07C481.26 28.29 466.62 27.02 452 26.07C436.2 25.04 420.38 24.29 404.56 23.73C341.42 21.48 278.2 22.29 215.04 23.21C151.88 24.13 88.4201 25.56 25.1101 27.04C17.2201 27.22 9.33005 27.41 1.44005 27.6C-0.489946 27.65 -0.489946 30.65 1.44005 30.6L1.45005 30.57Z" fill="#00D951"/>
</g>
<defs>
<clipPath id="clip0_2_405">
<rect width="567.83" height="70.31" fill="white"/>
</clipPath>
</defs>
</svg>
